<svg xmlns="http://www.w3.org/2000/svg" viewBox="0 0 24 24">
  <path fill="#ffffff" d="M11 17H13V11H11V17ZM12 9C12.3 9 12.56 8.9 12.77 8.69C12.98 8.48 13.08 8.22 13.08 7.92C13.08 7.62 12.98 7.36 12.77 7.15C12.56 6.94 12.3 6.84 12 6.84C11.7 6.84 11.44 6.94 11.23 7.15C11.02 7.36 10.92 7.62 10.92 7.92C10.92 8.22 11.02 8.48 11.23 8.69C11.44 8.9 11.7 9 12 9ZM12 22C10.62 22 9.32 21.74 8.11 21.21C6.9 20.69 5.85 19.98 4.95 19.08C4.05 18.18 3.34 17.12 2.81 15.91C2.29 14.7 2.03 13.4 2.03 12.02C2.03 10.63 2.29 9.33 2.81 8.12C3.34 6.91 4.05 5.85 4.95 4.95C5.85 4.05 6.9 3.34 8.11 2.81C9.32 2.29 10.62 2.03 12 2.03C13.38 2.03 14.68 2.29 15.89 2.81C17.1 3.34 18.15 4.05 19.05 4.95C19.95 5.85 20.66 6.91 21.19 8.12C21.71 9.33 21.97 10.63 21.97 12.02C21.97 13.4 21.71 14.7 21.19 15.91C20.66 17.12 19.95 18.18 19.05 19.08C18.15 19.98 17.1 20.69 15.89 21.21C14.68 21.74 13.38 22 12 22Z"/>
</svg>
